<svg width="104" height="32" viewBox="0 0 104 32" fill="none" xmlns="http://www.w3.org/2000/svg">
<path fill-rule="evenodd" clip-rule="evenodd" d="M0.0446091 8.777L6.69361 17.82H12.3676L5.54461 8.777L12.3676 0H6.69361L0.0446091 8.777ZM24.5602 0.266289L15.5173 6.91521V12.5893L24.5602 5.76226L33.3372 12.5893V6.91521L24.5602 0.266289ZM26.6876 13.3893L33.3366 22.4323L26.6876 31.2093H21.0136L27.8366 22.4323L21.0136 13.3893H26.6876ZM8.777 31.2096L17.82 24.5606V18.8866L8.777 25.7096L0 18.8866V24.5606L8.777 31.2096Z" fill="#D12127"/>
<path d="M46.7552 1.634C46.9699 1.634 47.1519 1.70867 47.3012 1.858C47.4599 2.00733 47.5392 2.18467 47.5392 2.39C47.5392 2.60467 47.4599 2.78667 47.3012 2.936C47.1519 3.08533 46.9699 3.16 46.7552 3.16C46.5499 3.16 46.3726 3.08533 46.2232 2.936C46.0739 2.78667 45.9992 2.60467 45.9992 2.39C45.9992 2.18467 46.0739 2.00733 46.2232 1.858C46.3726 1.70867 46.5499 1.634 46.7552 1.634ZM48.9252 1.634C49.1399 1.634 49.3219 1.70867 49.4712 1.858C49.6299 2.00733 49.7092 2.18467 49.7092 2.39C49.7092 2.60467 49.6299 2.78667 49.4712 2.936C49.3219 3.08533 49.1399 3.16 48.9252 3.16C48.7199 3.16 48.5426 3.08533 48.3932 2.936C48.2439 2.78667 48.1692 2.60467 48.1692 2.39C48.1692 2.18467 48.2439 2.00733 48.3932 1.858C48.5426 1.70867 48.7199 1.634 48.9252 1.634ZM50.7312 11V12.442C50.7312 12.8527 50.5866 13.198 50.2972 13.478C50.0172 13.7673 49.6719 13.912 49.2612 13.912H45.5652C44.9212 13.912 44.3286 13.7533 43.7872 13.436C43.2459 13.128 42.8166 12.7033 42.4992 12.162C42.1912 11.6207 42.0372 11.028 42.0372 10.384V8.102H43.2412V10.37C43.2412 10.79 43.3439 11.1773 43.5492 11.532C43.7639 11.8867 44.0486 12.1667 44.4032 12.372C44.7579 12.5867 45.1452 12.694 45.5652 12.694H49.1072C49.2286 12.694 49.3266 12.652 49.4012 12.568C49.4852 12.4933 49.5272 12.3953 49.5272 12.274V11H47.7492C47.1892 11 46.6712 10.8693 46.1952 10.608C45.7286 10.3467 45.3552 9.992 45.0752 9.544C44.8046 9.096 44.6692 8.60133 44.6692 8.06V7.5C44.6692 6.93067 44.8046 6.41267 45.0752 5.946C45.3552 5.47 45.7286 5.092 46.1952 4.812C46.6712 4.532 47.1892 4.392 47.7492 4.392C48.2812 4.392 48.7759 4.52733 49.2332 4.798C49.6906 5.06867 50.0546 5.43733 50.3252 5.904C50.5959 6.36133 50.7312 6.86067 50.7312 7.402V9.796H51.9632V11H50.7312ZM49.5272 7.402C49.5272 7.07533 49.4432 6.77667 49.2752 6.506C49.1166 6.226 48.9019 6.00667 48.6312 5.848C48.3606 5.68 48.0666 5.596 47.7492 5.596C47.4039 5.596 47.0866 5.68467 46.7972 5.862C46.5079 6.03 46.2792 6.25867 46.1112 6.548C45.9432 6.83733 45.8592 7.15467 45.8592 7.5V8.032C45.8592 8.52667 46.0412 8.94667 46.4052 9.292C46.7786 9.628 47.2266 9.796 47.7492 9.796H49.5272V7.402ZM55.9395 1.634C56.1542 1.634 56.3362 1.70867 56.4855 1.858C56.6442 2.00733 56.7235 2.18467 56.7235 2.39C56.7235 2.60467 56.6442 2.78667 56.4855 2.936C56.3362 3.08533 56.1542 3.16 55.9395 3.16C55.7342 3.16 55.5569 3.08533 55.4075 2.936C55.2582 2.78667 55.1835 2.60467 55.1835 2.39C55.1835 2.18467 55.2582 2.00733 55.4075 1.858C55.5569 1.70867 55.7342 1.634 55.9395 1.634ZM58.8375 10.062C58.8375 10.3233 58.7442 10.5473 58.5575 10.734C58.3802 10.9113 58.1609 11 57.8995 11H51.6835V9.796H53.6575C53.3682 9.59067 53.1395 9.32 52.9715 8.984C52.8035 8.648 52.7195 8.284 52.7195 7.892V7.388C52.7195 6.83733 52.8595 6.338 53.1395 5.89C53.4195 5.43267 53.7929 5.07333 54.2595 4.812C54.7355 4.55067 55.2489 4.42 55.7995 4.42H58.8375V10.062ZM55.8135 5.554C55.4682 5.554 55.1462 5.64267 54.8475 5.82C54.5582 5.988 54.3249 6.22133 54.1475 6.52C53.9795 6.80933 53.8955 7.12667 53.8955 7.472V7.934C53.9049 8.27 53.9935 8.58267 54.1615 8.872C54.3389 9.152 54.5722 9.376 54.8615 9.544C55.1602 9.712 55.4775 9.796 55.8135 9.796H57.4235C57.4795 9.796 57.5309 9.77733 57.5775 9.74C57.6242 9.69333 57.6475 9.63733 57.6475 9.572V5.554H55.8135ZM61.0132 1.2H62.2172V11H61.0132V1.2ZM68.666 9.796C68.834 9.796 68.974 9.85667 69.086 9.978C69.2073 10.09 69.268 10.23 69.268 10.398C69.268 10.566 69.2073 10.7107 69.086 10.832C68.974 10.944 68.834 11 68.666 11H68.19C67.9007 11 67.6253 10.9393 67.364 10.818C67.112 10.6967 66.9113 10.5333 66.762 10.328V11.126C66.7153 12.0407 66.4167 12.7593 65.866 13.282C65.3153 13.8047 64.6153 14.1453 63.766 14.304L63.332 13.17C64.0227 13.03 64.5687 12.7873 64.97 12.442C65.3713 12.0967 65.572 11.5693 65.572 10.86V4.476H66.762V8.382C66.762 8.774 66.902 9.11 67.182 9.39C67.462 9.66067 67.798 9.796 68.19 9.796H68.666ZM68.108 9.978C68.22 9.85667 68.36 9.796 68.528 9.796H69.018C69.3726 9.796 69.6573 9.68867 69.872 9.474C70.0866 9.25 70.194 8.96533 70.194 8.62V4.42H73.33C73.9086 4.42 74.4313 4.56 74.898 4.84C75.374 5.11067 75.7473 5.48867 76.018 5.974C76.2886 6.45 76.424 6.97733 76.424 7.556V7.99C76.424 8.53133 76.2793 9.03533 75.99 9.502C75.71 9.95933 75.332 10.3233 74.856 10.594C74.3893 10.8647 73.876 11 73.316 11C72.84 11 72.3966 10.888 71.986 10.664C71.5753 10.4307 71.244 10.1273 70.992 9.754C70.8146 10.1273 70.544 10.4307 70.18 10.664C69.8253 10.888 69.438 11 69.018 11H68.514C68.3553 10.9907 68.22 10.93 68.108 10.818C67.9866 10.6967 67.926 10.5567 67.926 10.398C67.926 10.23 67.9866 10.09 68.108 9.978ZM71.972 9.292C72.3453 9.63733 72.798 9.80533 73.33 9.796C73.666 9.796 73.9786 9.712 74.268 9.544C74.5666 9.376 74.8046 9.152 74.982 8.872C75.1593 8.58267 75.248 8.27 75.248 7.934V7.514C75.248 7.15933 75.1593 6.83733 74.982 6.548C74.814 6.25867 74.576 6.03 74.268 5.862C73.9693 5.694 73.6426 5.61 73.288 5.61H71.398V7.99C71.4073 8.51267 71.5986 8.94667 71.972 9.292Z" fill="url(#paint0_linear_895_12329)"/>
<path d="M52.2572 28.2097H51.0222V20.9297L47.8632 28.2097H46.8622L43.8202 20.9167V28.1967H42.5982V19.1097H44.1842L47.3692 26.8057L50.7362 19.1097H52.2572V28.2097ZM55.8653 26.0777L55.0073 28.2097H53.6813L57.3083 19.1097H58.5953L62.2873 28.2097H60.9613L60.1033 26.0907L55.8653 26.0777ZM57.9843 20.3837L56.2553 24.9987H59.7133L57.9843 20.3837ZM64.9579 28.1707H63.7099V19.1097H67.7399C68.2512 19.1097 68.7192 19.2353 69.1439 19.4867C69.5772 19.738 69.9196 20.0803 70.1709 20.5137C70.4309 20.947 70.5609 21.4193 70.5609 21.9307C70.5609 22.3813 70.4612 22.8017 70.2619 23.1917C70.0626 23.5817 69.7896 23.9067 69.4429 24.1667C69.1049 24.4267 68.7236 24.5913 68.2989 24.6607L67.9089 24.6867L70.5479 28.1317L69.0919 28.2097L66.5439 24.7777H64.9579V28.1707ZM67.5839 23.6467C67.8872 23.6467 68.1689 23.5687 68.4289 23.4127C68.6889 23.2567 68.8926 23.0487 69.0399 22.7887C69.1959 22.5287 69.2739 22.2427 69.2739 21.9307C69.2739 21.6273 69.1959 21.3457 69.0399 21.0857C68.8926 20.8257 68.6889 20.622 68.4289 20.4747C68.1689 20.3187 67.8872 20.2407 67.5839 20.2407H64.9579V23.6467H67.5839ZM73.5499 26.0777L72.6919 28.2097H71.3659L74.9929 19.1097H76.2799L79.9719 28.2097H78.6459L77.7879 26.0907L73.5499 26.0777ZM75.6689 20.3837L73.9399 24.9987H77.3979L75.6689 20.3837ZM82.6555 23.4907H86.9325V24.6347H82.6555V28.2097H81.4205V19.1097H87.1405V20.2407H82.6555V23.4907ZM90.3621 19.1097V28.2097H89.1271V19.1097H90.3621ZM101.828 23.6597C101.828 24.353 101.681 25.0117 101.386 25.6357C101.1 26.251 100.701 26.7753 100.19 27.2087L101.178 28.4437L100.346 29.0937L99.306 27.8067C98.6214 28.188 97.889 28.3787 97.109 28.3787C96.1817 28.3787 95.3584 28.1707 94.639 27.7547C93.9284 27.33 93.378 26.758 92.988 26.0387C92.598 25.3193 92.403 24.5263 92.403 23.6597C92.403 22.793 92.598 22 92.988 21.2807C93.3867 20.5613 93.9414 19.9937 94.652 19.5777C95.3714 19.153 96.1904 18.9407 97.109 18.9407C97.9584 18.9407 98.7427 19.153 99.462 19.5777C100.19 19.9937 100.766 20.5657 101.191 21.2937C101.616 22.013 101.828 22.8017 101.828 23.6597ZM97.109 27.2087C97.5944 27.2087 98.0624 27.083 98.513 26.8317L97.486 25.5447L98.318 24.8947L99.397 26.2207C99.7524 25.9087 100.03 25.5317 100.229 25.0897C100.428 24.639 100.528 24.1623 100.528 23.6597C100.528 23.0183 100.372 22.4247 100.06 21.8787C99.7567 21.3327 99.3407 20.8993 98.812 20.5787C98.292 20.258 97.7244 20.0977 97.109 20.0977C96.459 20.0977 95.874 20.258 95.354 20.5787C94.834 20.8907 94.4267 21.3197 94.132 21.8657C93.846 22.4117 93.703 23.0097 93.703 23.6597C93.703 24.3097 93.846 24.9077 94.132 25.4537C94.4267 25.991 94.8297 26.42 95.341 26.7407C95.861 27.0527 96.4504 27.2087 97.109 27.2087Z" fill="url(#paint1_linear_895_12329)"/>
<defs>
<linearGradient id="paint0_linear_895_12329" x1="59.8372" y1="0" x2="60.4218" y2="25.2806" gradientUnits="userSpaceOnUse">
<stop stop-color="#05050B"/>
<stop offset="1" stop-color="#2E0D0E"/>
</linearGradient>
<linearGradient id="paint1_linear_895_12329" x1="72.3372" y1="18.2097" x2="72.6381" y2="41.6932" gradientUnits="userSpaceOnUse">
<stop stop-color="#05050B"/>
<stop offset="1" stop-color="#2E0D0E"/>
</linearGradient>
</defs>
</svg>
